# xmcd
# Copyright (C) 1995-1998 Ti Kan
#
# Track frame offsets:
#       150
#       19779
#       38694
#       58144
#       70792
#       90529
#       114734
#       139174
#       171355
#       190934
#       225536
#       240886
#
# Disc length: 3552 seconds
#
# Revision: 0
# Processed by: cddbd v1.5.2PL0 Copyright (c) Steve Scherf et al.
# Submitted via: CD-Import v1.0
#
DISCID=9a0dde0c
DTITLE=James - Getting Away With It...live
DYEAR=2002
DGENRE=
TTITLE0=01 - Say Something (Live)
TTITLE1=02 - Waltzing Along (Live)
TTITLE2=03 - Sometimes (Live)
TTITLE3=04 - Laid (Live)
TTITLE4=05 - I Know What I'm Here For (Live)
TTITLE5=06 - God Only Knows (Live)
TTITLE6=07 - Someone's Got It In For Me (Live)
TTITLE7=08 - Vervaceous (Live)
TTITLE8=09 - Protect Me (Live)
TTITLE9=10 - Out To Get You (Live)
TTITLE10=11 - Hymn From A Village (Live)
TTITLE11=12 - Johnny Yen (Live)
EXTD=
EXTT0=
EXTT1=
EXTT2=
EXTT3=
EXTT4=
EXTT5=
EXTT6=
EXTT7=
EXTT8=
EXTT9=
EXTT10=
EXTT11=
PLAYORDER=
